<svg width="23" height="22" viewBox="0 0 23 22" fill="none" xmlns="http://www.w3.org/2000/svg">
<path fill-rule="evenodd" clip-rule="evenodd" d="M11.544 16.9837H11.5414C10.4552 16.9833 9.38804 16.7108 8.44018 16.1938L5 17.0962L5.92065 13.7334C5.35275 12.7492 5.05392 11.6328 5.05441 10.4891C5.05583 6.91104 7.96702 4 11.544 4C13.28 4.00075 14.9094 4.67658 16.1346 5.90323C17.3598 7.12982 18.0342 8.76025 18.0335 10.4942C18.0321 14.0715 15.122 16.9822 11.544 16.9837V16.9837ZM8.59954 15.0189L8.7965 15.1358C9.62464 15.6272 10.5739 15.8873 11.5418 15.8876H11.544C14.5169 15.8876 16.9366 13.4679 16.9377 10.4938C16.9383 9.05254 16.3778 7.69739 15.3594 6.67784C14.3411 5.6583 12.9868 5.09654 11.5461 5.09604C8.57091 5.09604 6.15123 7.51551 6.15005 10.4894C6.14963 11.5086 6.4348 12.5012 6.97473 13.3599L7.10298 13.564L6.55808 15.5544L8.59954 15.0189ZM14.8133 12.0375C14.7727 11.9699 14.6647 11.9293 14.5025 11.8481C14.3404 11.7669 13.5432 11.3747 13.3945 11.3205C13.2459 11.2664 13.1378 11.2394 13.0297 11.4017C12.9216 11.564 12.6108 11.9293 12.5162 12.0375C12.4217 12.1457 12.3271 12.1593 12.165 12.0781C12.0028 11.9969 11.4803 11.8257 10.861 11.2733C10.3789 10.8433 10.0535 10.3123 9.95892 10.15C9.86433 9.98763 9.94884 9.8999 10.03 9.81905C10.103 9.74637 10.1922 9.62961 10.2732 9.53495C10.3543 9.4403 10.3813 9.37262 10.4354 9.26447C10.4894 9.15621 10.4624 9.06155 10.4219 8.98038C10.3813 8.89921 10.0571 8.10107 9.92193 7.7764C9.7903 7.46021 9.65663 7.50304 9.5571 7.49805C9.46263 7.4933 9.35441 7.4923 9.24632 7.4923C9.13823 7.4923 8.96255 7.53289 8.81392 7.69523C8.6653 7.85756 8.24641 8.24986 8.24641 9.04794C8.24641 9.84608 8.82743 10.6171 8.90851 10.7253C8.98958 10.8336 10.0519 12.4714 11.6785 13.1737C12.0654 13.3408 12.3674 13.4406 12.6029 13.5153C12.9913 13.6388 13.3449 13.6213 13.6242 13.5796C13.9358 13.533 14.5836 13.1873 14.7187 12.8086C14.8538 12.4298 14.8538 12.1051 14.8133 12.0375V12.0375Z" fill="#FDFDFD"/>
</svg>
