<svg width="23" height="22" viewBox="0 0 23 22" fill="none" xmlns="http://www.w3.org/2000/svg">
<path fill-rule="evenodd" clip-rule="evenodd" d="M11.9808 16.1532C11.9808 16.1532 12.3418 16.1138 12.5267 15.9189C12.6959 15.7403 12.69 15.4033 12.69 15.4033C12.69 15.4033 12.6675 13.8295 13.4119 13.5971C14.1456 13.3686 15.0876 15.1191 16.0873 15.7922C16.8425 16.3011 17.4157 16.1897 17.4157 16.1897L20.0872 16.1532C20.0872 16.1532 21.4841 16.0687 20.8218 14.9904C20.767 14.902 20.4354 14.1925 18.8361 12.7349C17.1604 11.2091 17.3854 11.4559 19.4024 8.81631C20.6311 7.20894 21.1221 6.22762 20.9685 5.80801C20.8228 5.40665 19.9189 5.51323 19.9189 5.51323L16.9119 5.53147C16.9119 5.53147 16.6889 5.50171 16.5236 5.59869C16.3622 5.69375 16.2575 5.91555 16.2575 5.91555C16.2575 5.91555 15.7821 7.15901 15.1473 8.21715C13.8081 10.4486 13.273 10.5668 13.0539 10.4285C12.5443 10.1049 12.6714 9.1303 12.6714 8.43799C12.6714 6.27467 13.006 5.37304 12.0209 5.13971C11.6942 5.06193 11.4536 5.01104 10.6172 5.0024C9.54413 4.99184 8.63636 5.00624 8.12183 5.25301C7.77946 5.41721 7.51534 5.784 7.67675 5.80513C7.87532 5.83105 8.32529 5.92419 8.56397 6.24298C8.87211 6.6549 8.86135 7.57861 8.86135 7.57861C8.86135 7.57861 9.0384 10.1251 8.44757 10.441C8.04259 10.658 7.48698 10.2153 6.29259 8.19026C5.68122 7.15325 5.21951 6.00677 5.21951 6.00677C5.21951 6.00677 5.13049 5.79265 4.97104 5.67742C4.77834 5.53819 4.50933 5.49498 4.50933 5.49498L1.65201 5.51323C1.65201 5.51323 1.22258 5.52475 1.06509 5.70815C0.925205 5.87042 1.05433 6.20745 1.05433 6.20745C1.05433 6.20745 3.29147 11.3455 5.82501 13.9351C8.14824 16.3087 10.7855 16.1532 10.7855 16.1532H11.9808Z" fill="white"/>
</svg>
