<svg width="40" height="40" viewBox="0 0 40 40" fill="none" xmlns="http://www.w3.org/2000/svg">
<path d="M8.34299 19.3575H38.9388C38.9388 21.744 37.0419 23.641 34.6554 23.641H5.28341C2.89694 23.641 1 21.744 1 19.3575H3.44766" stroke="#9F8D7F" stroke-miterlimit="10" stroke-linecap="round" stroke-linejoin="round"/>
<path d="M2.28503 19.3575C2.89695 10.5459 10.6071 4.05957 19.9694 4.05957C29.3317 4.05957 37.0419 10.5459 37.6538 19.3575" stroke="#9F8D7F" stroke-miterlimit="10" stroke-linecap="round" stroke-linejoin="round"/>
<path d="M8.9549 13.7278C10.1787 12.0144 12.0145 10.1787 13.8502 9.56677" stroke="#9F8D7F" stroke-miterlimit="10" stroke-linecap="round" stroke-linejoin="round"/>
<path d="M16.9098 38.9388C16.9098 38.9388 20.2141 34.533 23.029 32.8196C26.0885 30.9839 30.3719 24.2528 34.6554 23.6409" stroke="#9F8D7F" stroke-miterlimit="10" stroke-linecap="round"/>
<path d="M10.1787 24.2528C10.1787 24.2528 9.68918 26.5781 9.99514 28.8422C10.0563 29.4541 9.81156 30.0048 9.44442 30.4332C8.40416 31.4734 6.69079 33.6763 7.11913 37.1642C7.11913 37.1642 5.8953 38.3881 5.28339 39" stroke="#9F8D7F" stroke-miterlimit="10" stroke-linecap="round" stroke-linejoin="round"/>
<path d="M13.2383 23.6409L13.7278 25.4767C13.8502 25.8438 13.8502 26.2721 13.8502 26.6393V29.087C13.8502 30.1272 14.6457 30.9227 15.6859 30.9227H16.2979C16.2979 30.9227 17.5217 23.5797 19.9694 23.5797" stroke="#9F8D7F" stroke-miterlimit="10" stroke-linecap="round" stroke-linejoin="round"/>
<path d="M16.2979 30.9839C16.2979 30.9839 12.0757 31.9018 11.0354 35.8792" stroke="#9F8D7F" stroke-miterlimit="10" stroke-linecap="round"/>
<path d="M22.417 23.6409C22.417 23.6409 20.5813 26.7004 20.5813 29.1481L27.9243 23.6409" stroke="#9F8D7F" stroke-miterlimit="10" stroke-linecap="round" stroke-linejoin="round"/>
<path d="M17.5217 3.44766C17.5217 2.10145 18.6232 1 19.9694 1C21.3156 1 22.4171 2.10145 22.4171 3.44766" stroke="#9F8D7F" stroke-miterlimit="10" stroke-linecap="round" stroke-linejoin="round"/>
</svg>
