<svg width="73" height="29" viewBox="0 0 73 29" fill="none" xmlns="http://www.w3.org/2000/svg">
<path d="M8.21439 28.6933C8.91974 26.0477 9.62284 23.4044 10.3349 20.7367C10.0214 20.8852 9.72808 21.0137 9.43027 21.1267C8.31068 21.5477 7.15526 21.7848 5.95282 21.756C4.68768 21.7249 3.50092 21.4192 2.44626 20.7057C1.22591 19.8815 0.482498 18.736 0.160055 17.3179C-0.09969 16.1702 -0.0302752 15.0269 0.274254 13.8969C0.802701 11.9382 1.88199 10.3075 3.36656 8.93375C4.69664 7.70183 6.22824 6.81555 7.98824 6.33253C9.26905 5.98245 10.5655 5.88717 11.8732 6.16414C13.2526 6.45661 14.4125 7.11467 15.2835 8.22916C15.9575 9.09328 16.3158 10.0859 16.43 11.1649C16.5374 12.1753 16.3986 13.1591 16.1299 14.1318C15.7672 15.4501 15.4178 16.7729 15.0641 18.0934C14.3005 20.9561 13.5571 23.8254 12.7667 26.6814C12.4554 27.8048 11.6515 28.4629 10.4894 28.6733C10.476 28.6756 10.4648 28.6844 10.4513 28.6911C9.70793 28.6933 8.96004 28.6933 8.21439 28.6933ZM4.18835 14.9028C4.19282 14.9782 4.19282 15.0978 4.2085 15.2152C4.34957 16.3829 4.96086 17.1916 6.08941 17.5927C6.71638 17.8142 7.36575 17.8275 8.01063 17.6924C9.56462 17.3645 10.7447 16.5026 11.5911 15.1864C12.0815 14.422 12.3434 13.5845 12.2897 12.6672C12.2181 11.4641 11.4523 10.5002 10.2901 10.159C9.65195 9.97069 9.00707 9.97069 8.36442 10.1191C6.94926 10.4471 5.84534 11.2359 5.02356 12.4102C4.50855 13.1436 4.2085 13.9567 4.18835 14.9028Z" fill="#9F8D7F"/>
<path d="M52.2591 0.00221582C51.9053 1.32719 51.5537 2.65217 51.2 3.97494C51.1686 3.99931 51.135 3.98823 51.1014 3.98823C50.4566 3.98823 49.8095 3.99266 49.1646 3.98823C48.71 3.98602 48.3025 3.85086 47.9935 3.50521C47.6174 3.08645 47.5502 2.58792 47.6801 2.0628C47.8525 1.37372 48.045 0.686862 48.2286 0C49.5721 0 50.9156 1.35202e-07 52.2591 0.00221582Z" fill="#9F8D7F"/>
<path d="M72.1427 6.07085C72.0554 6.30128 72.0061 6.54279 71.9434 6.78209C71.78 7.38254 71.6232 7.98521 71.4642 8.58788C71.4508 8.63884 71.4307 8.66764 71.368 8.66543C70.5148 8.66321 69.6595 8.66321 68.8063 8.66321C68.7929 8.66321 68.7795 8.65878 68.7571 8.65656C68.9922 7.7725 69.2273 6.89509 69.4624 6.00659C70.3559 6.00659 71.2493 6.00659 72.1427 6.00659C72.1427 6.02653 72.1427 6.04869 72.1427 6.07085Z" fill="#9F8D7F"/>
<path d="M23.1697 21.7603C22.3748 21.7559 21.3 21.5476 20.3081 21.0114C18.7272 20.1584 17.8002 18.8334 17.4665 17.0941C17.2605 16.0195 17.3412 14.9537 17.6255 13.9013C18.1405 11.9958 19.1773 10.3983 20.6036 9.04003C21.8576 7.84799 23.3041 6.96836 24.9633 6.44103C25.9261 6.13526 26.9136 5.97573 27.9257 6.00897C29.2379 6.05106 30.4605 6.38785 31.533 7.16334C32.7444 8.04076 33.4497 9.23723 33.714 10.6907C33.958 12.029 33.7811 13.3318 33.3199 14.6014C32.6504 16.4471 31.5106 17.9671 30.0059 19.2256C28.7251 20.2957 27.2808 21.0646 25.653 21.4811C24.9342 21.6673 24.1997 21.7581 23.1697 21.7603ZM21.5418 14.9005C21.5463 14.9759 21.5463 15.0955 21.562 15.2129C21.7031 16.3806 22.3121 17.1916 23.4384 17.5904C24.0654 17.8142 24.7147 17.8275 25.3596 17.6923C26.9181 17.3644 28.1004 16.5003 28.9468 15.1797C29.4349 14.4175 29.6947 13.5822 29.6409 12.6693C29.5693 11.4662 28.8057 10.5024 27.6436 10.159C27.0054 9.97062 26.3605 9.97062 25.7179 10.1191C24.3027 10.447 23.1988 11.2358 22.3748 12.4079C21.862 13.1413 21.562 13.9544 21.5418 14.9005Z" fill="#9F8D7F"/>
<path d="M47.9217 21.7604C47.9105 21.6895 47.962 21.6652 47.9934 21.6341C49.9146 19.7552 51.8358 17.8763 53.757 15.9996C54.4534 15.3194 55.1476 14.6392 55.844 13.9612C55.8999 13.9058 55.9134 13.8659 55.8753 13.7906C54.6214 11.2359 53.3697 8.67899 52.1157 6.12208C52.1 6.08884 52.0866 6.05561 52.0732 6.0268C52.0911 6.00022 52.1112 6.00686 52.1292 6.00686C52.8233 6.00686 53.5174 6.00022 54.2116 6.00908C54.8587 6.01794 55.4633 6.18633 55.9985 6.56078C56.3836 6.8311 56.6814 7.17675 56.8807 7.59994C57.3868 8.67677 57.9242 9.7403 58.4436 10.8105C58.5086 10.9434 58.5735 11.0741 58.6586 11.247C58.9318 10.9634 59.1848 10.693 59.4468 10.4338C60.3693 9.52538 61.3031 8.62803 62.2189 7.71073C62.987 6.9441 63.8714 6.38796 64.935 6.12651C65.2508 6.04896 65.571 6.00465 65.8979 6.00465C66.5696 6.00243 67.2414 6.00465 67.9132 6.00465C67.9355 6.00465 67.9557 6.00465 67.9938 6.00465C67.799 6.19963 67.6176 6.38131 67.434 6.56078C64.9619 8.97589 62.4921 11.391 60.02 13.8061C59.9641 13.8615 59.9551 13.9036 59.9909 13.9767C61.2382 16.5181 62.4831 19.0639 63.7304 21.6075C63.7528 21.6519 63.7908 21.694 63.755 21.756C63.7326 21.7582 63.7057 21.7604 63.6811 21.7604C63.0093 21.7604 62.3376 21.7715 61.6658 21.7582C60.8038 21.7405 60.0424 21.468 59.4401 20.8321C59.2318 20.6127 59.0773 20.3557 58.9475 20.0854C58.3832 18.9199 57.8144 17.7589 57.2479 16.5957C57.2434 16.5868 57.2345 16.5779 57.2278 16.5668C57.1897 16.5691 57.174 16.6001 57.1516 16.6222C56.0186 17.7301 54.8766 18.8291 53.7548 19.948C53.2465 20.4554 52.7024 20.9052 52.0553 21.2287C51.3387 21.5854 50.5819 21.7759 49.7758 21.7649C49.1578 21.7516 48.542 21.7604 47.9217 21.7604Z" fill="#9F8D7F"/>
<path d="M32.9082 21.7558C32.9911 21.4434 33.0694 21.1421 33.15 20.8385C33.3672 20.0232 33.5867 19.2078 33.8039 18.3924C34.0233 17.5704 34.2405 16.7462 34.46 15.9241C34.8339 14.5172 35.2101 13.1102 35.5863 11.7032C35.7475 11.0984 35.8975 10.489 36.0744 9.88859C36.3521 8.94914 36.8895 8.16256 37.6127 7.50229C38.383 6.7977 39.2742 6.31468 40.3109 6.11084C40.5169 6.07095 40.7229 6.04436 40.9312 6.0355C42.3284 5.97789 43.7257 6.02442 45.1252 6.01113C45.1319 6.01113 45.1386 6.01334 45.1632 6.01999C44.8094 7.34276 44.4579 8.66553 44.1063 9.98608C44.066 10.0082 44.0235 9.99716 43.9854 9.99716C43.3965 9.99716 42.8054 9.99716 42.2165 9.99716C41.0924 10.0016 40.2997 10.5466 39.7466 11.4795C39.5698 11.7764 39.5093 12.1131 39.422 12.4411C39.0525 13.8192 38.683 15.1974 38.3158 16.5755C37.9217 18.0578 37.5276 19.5401 37.1358 21.0224C37.0708 21.2684 37.0037 21.5121 36.9365 21.758C35.5952 21.7558 34.2607 21.7558 32.9082 21.7558Z" fill="#9F8D7F"/>
<path d="M46.6296 6.00866C47.3507 6.00866 48.0605 5.98872 48.7703 6.01309C49.6996 6.04411 50.3176 6.80188 50.1832 7.71253C50.1183 8.16231 49.9705 8.59437 49.8541 9.03086C48.8823 12.6845 47.906 16.3382 46.9319 19.9919C46.7819 20.5502 46.6341 21.1108 46.4841 21.6692C46.4774 21.698 46.4662 21.7246 46.4595 21.7534C45.1159 21.7534 43.7769 21.7534 42.4312 21.7534C43.8306 16.5044 45.2279 11.2598 46.6296 6.00866Z" fill="#9F8D7F"/>
</svg>
