<svg width="175" height="98" viewBox="0 0 175 98" fill="none" xmlns="http://www.w3.org/2000/svg">
<path d="M44.8503 18.675C44.1536 18.455 43.512 18.345 42.9253 18.345C42.2286 18.345 41.6786 18.5467 41.2753 18.95C40.9086 19.3167 40.7253 19.8667 40.7253 20.6V54.7C40.7253 55.4333 40.9086 56.0017 41.2753 56.405C41.6786 56.7717 42.2286 56.955 42.9253 56.955C43.512 56.955 44.1536 56.845 44.8503 56.625V58H32.4753V56.625C33.2086 56.845 33.8503 56.955 34.4003 56.955C35.097 56.955 35.6286 56.7717 35.9953 56.405C36.3986 56.0017 36.6003 55.4333 36.6003 54.7V19.445L23.0703 59.1H22.2453L7.50529 22.965L7.56029 54.7C7.56029 55.3967 7.89029 55.9467 8.55029 56.35C9.24696 56.7533 10.0903 56.955 11.0803 56.955C11.8136 56.955 12.547 56.845 13.2803 56.625V58H0.850293V56.625C1.54696 56.845 2.26196 56.955 2.99529 56.955C3.94863 56.955 4.73696 56.7533 5.36029 56.35C5.98363 55.9467 6.29529 55.3967 6.29529 54.7V20.6C6.29529 19.9033 6.03863 19.3533 5.52529 18.95C5.01196 18.5467 4.31529 18.345 3.43529 18.345C2.81196 18.345 2.13363 18.455 1.40029 18.675V17.3H9.92529L24.1153 52.39L35.5003 17.3H44.8503V18.675ZM67.4338 59.1C65.0138 59.1 62.7588 58.6417 60.6688 57.725C58.6155 56.8083 56.8921 55.305 55.4988 53.215C54.1421 51.0883 53.4271 48.3383 53.3538 44.965V20.6C53.3538 19.8667 53.1521 19.3167 52.7488 18.95C52.3821 18.5467 51.8505 18.345 51.1538 18.345C50.5671 18.345 49.9255 18.455 49.2288 18.675V17.3L51.3188 17.355C53.1521 17.4283 54.5455 17.465 55.4988 17.465C56.4521 17.465 57.8088 17.4283 59.5688 17.355L61.6038 17.3V18.675C60.9071 18.455 60.2655 18.345 59.6788 18.345C58.9821 18.345 58.4321 18.5467 58.0288 18.95C57.6621 19.3167 57.4788 19.8667 57.4788 20.6V44.305C57.4788 47.5317 57.9921 50.1717 59.0188 52.225C60.0455 54.2783 61.3288 55.7633 62.8688 56.68C64.4088 57.5967 66.0038 58.055 67.6538 58.055C71.7238 58.055 74.5471 56.625 76.1238 53.765C77.7005 50.905 78.4888 47.6233 78.4888 43.92V20.545C78.4888 19.8483 78.1771 19.2983 77.5538 18.895C76.9671 18.4917 76.1971 18.29 75.2438 18.29C74.5105 18.29 73.7955 18.4 73.0988 18.62V17.3H84.8138V18.62C84.0805 18.4 83.4021 18.29 82.7788 18.29C81.9721 18.29 81.3121 18.4917 80.7988 18.895C80.3221 19.2983 80.0838 19.8483 80.0838 20.545V44.305C80.0471 47.0183 79.5521 49.4933 78.5988 51.73C77.6821 53.9667 76.2705 55.7633 74.3638 57.12C72.4938 58.44 70.1838 59.1 67.4338 59.1ZM123.426 17.245V18.62C122.692 18.4 121.996 18.29 121.336 18.29C120.419 18.29 119.667 18.4917 119.081 18.895C118.531 19.2983 118.256 19.8483 118.256 20.545V59.1H116.991L92.6805 21.315L92.7355 54.7C92.7355 55.3967 93.0655 55.9467 93.7255 56.35C94.4222 56.7533 95.2655 56.955 96.2555 56.955C97.0255 56.955 97.7589 56.845 98.4555 56.625V58H86.4655V56.625C87.1622 56.845 87.8589 56.955 88.5555 56.955C89.4355 56.955 90.1322 56.7533 90.6455 56.35C91.1955 55.9467 91.4705 55.3967 91.4705 54.7V20.6C91.4705 19.9033 91.1955 19.3533 90.6455 18.95C90.0955 18.5467 89.3805 18.345 88.5005 18.345C87.8772 18.345 87.1989 18.455 86.4655 18.675V17.3H95.1005L116.991 50.465V20.545C116.991 19.8483 116.679 19.2983 116.056 18.895C115.432 18.4917 114.644 18.29 113.691 18.29C112.957 18.29 112.242 18.4 111.546 18.62V17.245H123.426ZM126.734 56.625C127.43 56.845 128.072 56.955 128.659 56.955C129.355 56.955 129.887 56.7717 130.254 56.405C130.657 56.0017 130.859 55.4333 130.859 54.7V20.6C130.859 19.8667 130.657 19.3167 130.254 18.95C129.887 18.5467 129.355 18.345 128.659 18.345C128.072 18.345 127.43 18.455 126.734 18.675V17.3H139.109V18.675C138.412 18.455 137.77 18.345 137.184 18.345C136.487 18.345 135.937 18.5467 135.534 18.95C135.167 19.3167 134.984 19.8667 134.984 20.6V54.7C134.984 55.4333 135.167 56.0017 135.534 56.405C135.937 56.7717 136.487 56.955 137.184 56.955C137.77 56.955 138.412 56.845 139.109 56.625V58H126.734V56.625ZM161.147 35.285C162.467 35.395 164.025 35.7983 165.822 36.495C167.655 37.155 169.268 38.2 170.662 39.63C172.055 41.06 172.752 42.8383 172.752 44.965C172.752 47.8983 172.018 50.355 170.552 52.335C169.122 54.2783 167.252 55.7083 164.942 56.625C162.668 57.5417 160.267 58 157.737 58H143.492V56.625C144.188 56.845 144.812 56.955 145.362 56.955C146.792 56.955 147.543 56.2033 147.617 54.7V20.6C147.543 19.0967 146.792 18.345 145.362 18.345C144.812 18.345 144.188 18.455 143.492 18.675V17.3H156.857C160.34 17.3 163.347 17.9967 165.877 19.39C168.443 20.7833 169.727 23.13 169.727 26.43C169.727 28.0067 169.232 29.455 168.242 30.775C167.288 32.0583 166.133 33.1033 164.777 33.91C163.42 34.68 162.21 35.1017 161.147 35.175C161.073 35.175 161.037 35.1933 161.037 35.23C161.037 35.2667 161.073 35.285 161.147 35.285ZM151.742 34.625H159.112C160.578 34.625 162.082 34.13 163.622 33.14C165.162 32.15 165.932 30.1333 165.932 27.09C165.968 23.9733 165.107 21.6633 163.347 20.16C161.623 18.62 159.497 17.85 156.967 17.85C155.097 17.85 153.355 17.9967 151.742 18.29V34.625ZM156.307 57.45C158.91 57.45 161.11 56.9367 162.907 55.91C164.703 54.8467 166.042 53.435 166.922 51.675C167.838 49.8783 168.297 47.8983 168.297 45.735C168.297 43.3883 167.82 41.4633 166.867 39.96C165.913 38.4567 164.74 37.375 163.347 36.715C161.953 36.055 160.542 35.725 159.112 35.725H151.742V51.73C151.742 53.38 151.943 54.6267 152.347 55.47C152.787 56.3133 153.318 56.8633 153.942 57.12C154.602 57.34 155.39 57.45 156.307 57.45Z" fill="white"/>
<path d="M47.0059 82.99C46.8192 82.934 46.6559 82.906 46.5159 82.906C46.3385 82.906 46.1985 82.9573 46.0959 83.06C46.0025 83.1533 45.9559 83.2933 45.9559 83.48V92.16C45.9559 92.3467 46.0025 92.4913 46.0959 92.594C46.1985 92.6873 46.3385 92.734 46.5159 92.734C46.6652 92.734 46.8285 92.706 47.0059 92.65V93H43.8559V92.65C44.0425 92.706 44.2059 92.734 44.3459 92.734C44.5232 92.734 44.6585 92.6873 44.7519 92.594C44.8545 92.4913 44.9059 92.3467 44.9059 92.16V87.358H39.7119V92.16C39.7119 92.3467 39.7585 92.4913 39.8519 92.594C39.9545 92.6873 40.0992 92.734 40.2859 92.734C40.4259 92.734 40.5845 92.706 40.7619 92.65V93H37.6119V92.65C37.7892 92.706 37.9525 92.734 38.1019 92.734C38.2792 92.734 38.4145 92.6873 38.5079 92.594C38.6105 92.4913 38.6619 92.3467 38.6619 92.16V83.48C38.6619 83.2933 38.6105 83.1533 38.5079 83.06C38.4145 82.9573 38.2792 82.906 38.1019 82.906C37.9525 82.906 37.7892 82.934 37.6119 82.99V82.64H40.7619V82.99C40.5845 82.934 40.4212 82.906 40.2719 82.906C40.0945 82.906 39.9545 82.9573 39.8519 83.06C39.7585 83.1533 39.7119 83.2933 39.7119 83.48V87.078H44.9059V83.48C44.9059 83.2933 44.8545 83.1533 44.7519 83.06C44.6585 82.9573 44.5232 82.906 44.3459 82.906C44.2059 82.906 44.0425 82.934 43.8559 82.99V82.64H47.0059V82.99ZM67.4035 93.28C66.4609 93.28 65.6442 93.0327 64.9535 92.538C64.2629 92.034 63.7355 91.362 63.3715 90.522C63.0169 89.682 62.8349 88.758 62.8255 87.75C62.8162 86.9567 62.9609 86.1493 63.2595 85.328C63.5582 84.4973 64.0389 83.7973 64.7015 83.228C65.3642 82.6493 66.2182 82.36 67.2635 82.36C68.3182 82.36 69.1815 82.6353 69.8535 83.186C70.5349 83.7273 71.0249 84.4087 71.3235 85.23C71.6315 86.0513 71.7855 86.8913 71.7855 87.75C71.7855 88.7673 71.6222 89.696 71.2955 90.536C70.9689 91.3667 70.4742 92.034 69.8115 92.538C69.1582 93.0327 68.3555 93.28 67.4035 93.28ZM67.4035 93C68.5329 93 69.3495 92.5147 69.8535 91.544C70.3669 90.564 70.6189 89.2993 70.6095 87.75C70.6002 86.9473 70.4742 86.154 70.2315 85.37C69.9982 84.586 69.6295 83.9373 69.1255 83.424C68.6309 82.9013 68.0102 82.64 67.2635 82.64C66.5075 82.64 65.8869 82.9247 65.4015 83.494C64.9162 84.054 64.5615 84.74 64.3375 85.552C64.1229 86.364 64.0155 87.148 64.0155 87.904C64.0155 88.856 64.1369 89.7147 64.3795 90.48C64.6315 91.2453 65.0095 91.8567 65.5135 92.314C66.0269 92.7713 66.6569 93 67.4035 93ZM94.087 83.046C94.059 83.2233 94.045 83.452 94.045 83.732C94.045 84.2827 94.1103 84.712 94.241 85.02H94.017C93.9143 84.824 93.8397 84.5673 93.793 84.25C93.7277 83.914 93.639 83.6527 93.527 83.466C93.415 83.27 93.1863 83.1067 92.841 82.976C92.4957 82.8453 91.9777 82.78 91.287 82.78C91.1657 82.78 91.0303 82.7893 90.881 82.808V92.16C90.881 92.3467 90.9277 92.4913 91.021 92.594C91.1237 92.6873 91.2637 92.734 91.441 92.734C91.5903 92.734 91.7537 92.706 91.931 92.65V93H88.781V92.65C88.9677 92.706 89.131 92.734 89.271 92.734C89.4483 92.734 89.5837 92.6873 89.677 92.594C89.7797 92.4913 89.831 92.3467 89.831 92.16V82.808C89.6817 82.7893 89.551 82.78 89.439 82.78C88.7483 82.78 88.2303 82.8453 87.885 82.976C87.5397 83.1067 87.311 83.27 87.199 83.466C87.087 83.6527 86.9983 83.914 86.933 84.25C86.8863 84.5673 86.8117 84.824 86.709 85.02H86.485C86.6157 84.712 86.681 84.2827 86.681 83.732C86.681 83.452 86.667 83.2233 86.639 83.046L86.597 82.64H94.129L94.087 83.046ZM116.644 89.836C116.513 89.9573 116.424 90.1487 116.378 90.41C116.34 90.6713 116.322 91.0587 116.322 91.572V93H109.224V92.65C109.401 92.706 109.564 92.734 109.714 92.734C109.891 92.734 110.026 92.6873 110.12 92.594C110.222 92.4913 110.274 92.3467 110.274 92.16V83.48C110.274 83.2933 110.222 83.1533 110.12 83.06C110.026 82.9573 109.891 82.906 109.714 82.906C109.564 82.906 109.401 82.934 109.224 82.99V82.64H115.734L115.692 83.046C115.664 83.2233 115.65 83.452 115.65 83.732C115.65 84.2827 115.715 84.712 115.846 85.02H115.622C115.519 84.824 115.444 84.5673 115.398 84.25C115.332 83.914 115.244 83.6527 115.132 83.466C115.02 83.27 114.791 83.1067 114.446 82.976C114.1 82.8453 113.582 82.78 112.892 82.78C112.397 82.78 112.038 82.864 111.814 83.032C111.59 83.2 111.454 83.382 111.408 83.578C111.37 83.7647 111.342 84.0353 111.324 84.39V87.05H113.256C113.526 87.05 113.713 87.0453 113.816 87.036C113.928 87.0173 114.012 86.9753 114.068 86.91C114.124 86.8447 114.152 86.7327 114.152 86.574C114.152 86.294 114.133 86.084 114.096 85.944C114.068 85.804 113.974 85.734 113.816 85.734V85.552H114.362V88.8H113.816V88.604C113.974 88.604 114.068 88.5293 114.096 88.38C114.133 88.2213 114.152 87.9973 114.152 87.708C114.152 87.5587 114.086 87.4607 113.956 87.414C113.834 87.358 113.601 87.3253 113.256 87.316H111.324V91.25C111.342 91.5673 111.38 91.8333 111.436 92.048C111.492 92.2533 111.636 92.44 111.87 92.608C112.112 92.776 112.481 92.86 112.976 92.86C113.778 92.86 114.39 92.776 114.81 92.608C115.23 92.4307 115.514 92.216 115.664 91.964C115.813 91.7027 115.944 91.3527 116.056 90.914C116.168 90.438 116.298 90.0787 116.448 89.836H116.644ZM137.949 89.836C137.819 89.9573 137.73 90.1487 137.683 90.41C137.646 90.6713 137.627 91.0587 137.627 91.572V93H132.041V92.65C132.219 92.706 132.382 92.734 132.531 92.734C132.709 92.734 132.844 92.6873 132.937 92.594C133.04 92.4913 133.091 92.3467 133.091 92.16V83.48C133.091 83.2933 133.04 83.1533 132.937 83.06C132.844 82.9573 132.709 82.906 132.531 82.906C132.382 82.906 132.219 82.934 132.041 82.99V82.64H135.191V82.99C135.014 82.934 134.851 82.906 134.701 82.906C134.524 82.906 134.384 82.9573 134.281 83.06C134.188 83.1533 134.141 83.2933 134.141 83.48V91.25C134.141 91.8007 134.235 92.2067 134.421 92.468C134.608 92.7293 134.935 92.86 135.401 92.86C135.924 92.86 136.316 92.79 136.577 92.65C136.839 92.5007 137.011 92.3187 137.095 92.104C137.179 91.88 137.249 91.5673 137.305 91.166C137.343 90.858 137.385 90.606 137.431 90.41C137.478 90.214 137.562 90.0227 137.683 89.836H137.949Z" fill="white"/>
</svg>
