<svg width="25" height="21" viewBox="0 0 25 21" fill="none" xmlns="http://www.w3.org/2000/svg">
<path d="M18.9126 5.9C18.9126 7.6 17.6126 9 15.9126 9C14.2126 9 12.9126 7.6 12.9126 5.9V4.1C12.9126 2.4 14.2126 1 15.9126 1C17.6126 1 18.9126 2.4 18.9126 4.1V5.9Z" stroke="white" stroke-miterlimit="10" stroke-linecap="round" stroke-linejoin="round"/>
<path d="M7.9126 6.5C9.29331 6.5 10.4126 5.38071 10.4126 4C10.4126 2.61929 9.29331 1.5 7.9126 1.5C6.53189 1.5 5.4126 2.61929 5.4126 4C5.4126 5.38071 6.53189 6.5 7.9126 6.5Z" stroke="white" stroke-miterlimit="10" stroke-linecap="round" stroke-linejoin="round"/>
<path d="M10.4128 12.1C9.41281 11.4 8.21281 11 6.91281 11C4.01281 11 1.51281 13.1 1.01281 15.9C0.912806 16.5 1.41281 17 2.01281 17H6.91281" stroke="white" stroke-miterlimit="10" stroke-linecap="round" stroke-linejoin="round"/>
<path d="M15.9128 12C11.9128 12 8.51281 15 8.01281 18.9C7.91281 19.5 8.41281 20 9.01281 20H22.8128C23.4128 20 23.9128 19.5 23.8128 18.9C23.3128 15 19.9128 12 15.9128 12Z" stroke="white" stroke-miterlimit="10" stroke-linecap="round" stroke-linejoin="round"/>
</svg>
