<svg aria-hidden="true" xmlns="http://www.w3.org/2000/svg" xmlns:xlink="http://www.w3.org/1999/xlink"><symbol viewBox="0 0 10 6" fill="none" id="icon-arrow" xmlns="http://www.w3.org/2000/svg">
<path d="M1 1L5 5L9 1" stroke="currentColor"/>
</symbol><symbol viewBox="0 0 12 7" fill="none" id="icon-arrow-line" xmlns="http://www.w3.org/2000/svg">
<path d="M11.7475 3.74749C11.8842 3.6108 11.8842 3.3892 11.7475 3.25251L9.5201 1.02513C9.38342 0.888442 9.16181 0.888442 9.02513 1.02513C8.88844 1.16181 8.88844 1.38342 9.02513 1.5201L11.005 3.5L9.02513 5.4799C8.88844 5.61658 8.88844 5.83819 9.02513 5.97487C9.16181 6.11156 9.38342 6.11156 9.5201 5.97487L11.7475 3.74749ZM0.5 3.85L11.5 3.85L11.5 3.15L0.5 3.15L0.5 3.85Z" fill="currentColor"/>
</symbol><symbol viewBox="0 0 66 8" fill="none" id="icon-arrow-super" xmlns="http://www.w3.org/2000/svg">
<path d="M65.3536 4.35355C65.5488 4.15829 65.5488 3.84171 65.3536 3.64645L62.1716 0.464466C61.9763 0.269204 61.6597 0.269204 61.4645 0.464466C61.2692 0.659728 61.2692 0.976311 61.4645 1.17157L64.2929 4L61.4645 6.82843C61.2692 7.02369 61.2692 7.34027 61.4645 7.53553C61.6597 7.7308 61.9763 7.7308 62.1716 7.53553L65.3536 4.35355ZM0 4.5H65V3.5H0V4.5Z" fill="currentColor"/>
</symbol><symbol viewBox="0 0 23 22" fill="none" id="icon-tg" xmlns="http://www.w3.org/2000/svg">
<path fill-rule="evenodd" clip-rule="evenodd" d="M10.1133 15.7107C10.4258 15.7107 10.5639 15.5678 10.7383 15.3982L12.4049 13.7776L10.326 12.5239" fill="currentColor"/>
<path fill-rule="evenodd" clip-rule="evenodd" d="M10.3251 12.5239L15.3626 16.2457C15.9375 16.5629 16.3524 16.3987 16.4955 15.712L18.5461 6.04919C18.756 5.2075 18.2252 4.82575 17.6753 5.07542L5.63467 9.71823C4.81278 10.0479 4.81758 10.5064 5.48486 10.7107L8.57475 11.6751L15.7282 7.16212C16.0659 6.95734 16.3758 7.06743 16.1214 7.2932" fill="currentColor"/>
</symbol><symbol viewBox="0 0 23 22" fill="none" id="icon-vk" xmlns="http://www.w3.org/2000/svg">
<path fill-rule="evenodd" clip-rule="evenodd" d="M11.9808 16.1532C11.9808 16.1532 12.3418 16.1138 12.5267 15.9189C12.6959 15.7403 12.69 15.4033 12.69 15.4033C12.69 15.4033 12.6675 13.8295 13.4119 13.5971C14.1456 13.3686 15.0876 15.1191 16.0873 15.7922C16.8425 16.3011 17.4157 16.1897 17.4157 16.1897L20.0872 16.1532C20.0872 16.1532 21.4841 16.0687 20.8218 14.9904C20.767 14.902 20.4354 14.1925 18.8361 12.7349C17.1604 11.2091 17.3854 11.4559 19.4024 8.81631C20.6311 7.20894 21.1221 6.22762 20.9685 5.80801C20.8228 5.40665 19.9189 5.51323 19.9189 5.51323L16.9119 5.53147C16.9119 5.53147 16.6889 5.50171 16.5236 5.59869C16.3622 5.69375 16.2575 5.91555 16.2575 5.91555C16.2575 5.91555 15.7821 7.15901 15.1473 8.21715C13.8081 10.4486 13.273 10.5668 13.0539 10.4285C12.5443 10.1049 12.6714 9.1303 12.6714 8.43799C12.6714 6.27467 13.006 5.37304 12.0209 5.13971C11.6942 5.06193 11.4536 5.01104 10.6172 5.0024C9.54413 4.99184 8.63636 5.00624 8.12183 5.25301C7.77946 5.41721 7.51534 5.784 7.67675 5.80513C7.87532 5.83105 8.32529 5.92419 8.56397 6.24298C8.87211 6.6549 8.86135 7.57861 8.86135 7.57861C8.86135 7.57861 9.0384 10.1251 8.44757 10.441C8.04259 10.658 7.48698 10.2153 6.29259 8.19026C5.68122 7.15325 5.21951 6.00677 5.21951 6.00677C5.21951 6.00677 5.13049 5.79265 4.97104 5.67742C4.77834 5.53819 4.50933 5.49498 4.50933 5.49498L1.65201 5.51323C1.65201 5.51323 1.22258 5.52475 1.06509 5.70815C0.925205 5.87042 1.05433 6.20745 1.05433 6.20745C1.05433 6.20745 3.29147 11.3455 5.82501 13.9351C8.14824 16.3087 10.7855 16.1532 10.7855 16.1532H11.9808Z" fill="currentColor"/>
</symbol><symbol viewBox="0 0 23 22" fill="none" id="icon-wh" xmlns="http://www.w3.org/2000/svg">
<path fill-rule="evenodd" clip-rule="evenodd" d="M11.544 16.9837H11.5414C10.4552 16.9833 9.38804 16.7108 8.44018 16.1938L5 17.0962L5.92065 13.7334C5.35275 12.7492 5.05392 11.6328 5.05441 10.4891C5.05583 6.91104 7.96702 4 11.544 4C13.28 4.00075 14.9094 4.67658 16.1346 5.90323C17.3598 7.12982 18.0342 8.76025 18.0335 10.4942C18.0321 14.0715 15.122 16.9822 11.544 16.9837V16.9837ZM8.59954 15.0189L8.7965 15.1358C9.62464 15.6272 10.5739 15.8873 11.5418 15.8876H11.544C14.5169 15.8876 16.9366 13.4679 16.9377 10.4938C16.9383 9.05254 16.3778 7.69739 15.3594 6.67784C14.3411 5.6583 12.9868 5.09654 11.5461 5.09604C8.57091 5.09604 6.15123 7.51551 6.15005 10.4894C6.14963 11.5086 6.4348 12.5012 6.97473 13.3599L7.10298 13.564L6.55808 15.5544L8.59954 15.0189ZM14.8133 12.0375C14.7727 11.9699 14.6647 11.9293 14.5025 11.8481C14.3404 11.7669 13.5432 11.3747 13.3945 11.3205C13.2459 11.2664 13.1378 11.2394 13.0297 11.4017C12.9216 11.564 12.6108 11.9293 12.5162 12.0375C12.4217 12.1457 12.3271 12.1593 12.165 12.0781C12.0028 11.9969 11.4803 11.8257 10.861 11.2733C10.3789 10.8433 10.0535 10.3123 9.95892 10.15C9.86433 9.98763 9.94884 9.8999 10.03 9.81905C10.103 9.74637 10.1922 9.62961 10.2732 9.53495C10.3543 9.4403 10.3813 9.37262 10.4354 9.26447C10.4894 9.15621 10.4624 9.06155 10.4219 8.98038C10.3813 8.89921 10.0571 8.10107 9.92193 7.7764C9.7903 7.46021 9.65663 7.50304 9.5571 7.49805C9.46263 7.4933 9.35441 7.4923 9.24632 7.4923C9.13823 7.4923 8.96255 7.53289 8.81392 7.69523C8.6653 7.85756 8.24641 8.24986 8.24641 9.04794C8.24641 9.84608 8.82743 10.6171 8.90851 10.7253C8.98958 10.8336 10.0519 12.4714 11.6785 13.1737C12.0654 13.3408 12.3674 13.4406 12.6029 13.5153C12.9913 13.6388 13.3449 13.6213 13.6242 13.5796C13.9358 13.533 14.5836 13.1873 14.7187 12.8086C14.8538 12.4298 14.8538 12.1051 14.8133 12.0375V12.0375Z" fill="currentColor"/>
</symbol></svg>